<svg width="68" height="44" viewBox="0 0 68 44" fill="none" xmlns="http://www.w3.org/2000/svg">
<path d="M29.8846 26.2545C29.2849 26.2545 28.7136 26.2072 28.1706 26.1125C27.6277 26.0241 27.1511 25.901 26.7407 25.7432L27.8771 22.0311C28.3064 22.1826 28.6978 22.2804 29.0513 22.3246C29.4112 22.3688 29.7173 22.3436 29.9699 22.2489C30.2287 22.1542 30.4149 21.9742 30.5286 21.7091L30.6422 21.4439L25.5286 6.25455H30.9831L33.3316 16.3303H33.4831L35.8695 6.25455H41.3619L36.0589 22.0121C35.7937 22.8139 35.4086 23.5336 34.9036 24.1712C34.4048 24.8152 33.7483 25.3234 32.9339 25.6958C32.1195 26.0683 31.1031 26.2545 29.8846 26.2545Z" fill="white"/>
<path d="M32.8361 42.9318C31.283 42.9318 29.9446 42.6351 28.8209 42.0417C27.7035 41.4419 26.8417 40.5833 26.2357 39.4659C25.6359 38.3422 25.3361 36.9975 25.3361 35.4318C25.3361 33.9293 25.6391 32.6162 26.2451 31.4924C26.8512 30.3687 27.7066 29.4943 28.8114 28.8693C29.9162 28.2443 31.2199 27.9318 32.7224 27.9318C33.8209 27.9318 34.8152 28.1023 35.7054 28.4432C36.5955 28.7841 37.3563 29.2797 37.9876 29.9299C38.6189 30.5739 39.105 31.3567 39.4459 32.2784C39.7868 33.2001 39.9573 34.2386 39.9573 35.3939V36.6061H26.9648V33.7273H35.1467C35.1404 33.3106 35.033 32.9444 34.8247 32.6288C34.6227 32.3068 34.3481 32.0575 34.0008 31.8807C33.6599 31.6976 33.2717 31.6061 32.8361 31.6061C32.4131 31.6061 32.0248 31.6976 31.6713 31.8807C31.3178 32.0575 31.0337 32.3037 30.819 32.6193C30.6107 32.935 30.5002 33.3043 30.4876 33.7273V36.8333C30.4876 37.3005 30.5854 37.7172 30.7811 38.0833C30.9768 38.4495 31.2578 38.7367 31.6239 38.9451C31.9901 39.1534 32.432 39.2576 32.9497 39.2576C33.3095 39.2576 33.6378 39.2071 33.9345 39.1061C34.2376 39.0051 34.4964 38.8599 34.7111 38.6705C34.9257 38.4748 35.0835 38.2412 35.1845 37.9697H39.9573C39.7931 38.9798 39.4049 39.8573 38.7925 40.6023C38.1801 41.3409 37.3689 41.9154 36.3588 42.3258C35.355 42.7298 34.1808 42.9318 32.8361 42.9318Z" fill="white"/>
<path d="M46.1434 42.8939C45.2153 42.8939 44.3946 42.7424 43.6812 42.4394C42.9742 42.1301 42.4186 41.6629 42.0146 41.0379C41.6105 40.4129 41.4085 39.6174 41.4085 38.6515C41.4085 37.8561 41.5442 37.1774 41.8157 36.6155C42.0872 36.0474 42.466 35.5833 42.9521 35.2235C43.4382 34.8636 44.0032 34.589 44.6471 34.3996C45.2974 34.2102 45.9981 34.0871 46.7494 34.0303C47.5638 33.9672 48.2172 33.8914 48.7096 33.803C49.2084 33.7083 49.5682 33.5789 49.7892 33.4148C50.0101 33.2443 50.1206 33.0202 50.1206 32.7424V32.7046C50.1206 32.3258 49.9754 32.0354 49.685 31.8333C49.3946 31.6313 49.0221 31.5303 48.5676 31.5303C48.0689 31.5303 47.6617 31.6408 47.346 31.8617C47.0367 32.0764 46.8504 32.4078 46.7873 32.8561H41.9767C42.0398 31.9722 42.3207 31.1578 42.8195 30.4129C43.3245 29.6616 44.06 29.0619 45.0259 28.6136C45.9918 28.1591 47.1976 27.9318 48.6434 27.9318C49.685 27.9318 50.6194 28.0549 51.4464 28.3011C52.2734 28.541 52.9773 28.8788 53.5581 29.3144C54.1389 29.7437 54.5809 30.2487 54.8839 30.8296C55.1932 31.404 55.3479 32.029 55.3479 32.7046V42.6667H50.4615V40.6212H50.3479C50.0575 41.1641 49.704 41.6029 49.2873 41.9375C48.8769 42.2721 48.4066 42.5152 47.8763 42.6667C47.3523 42.8182 46.7747 42.8939 46.1434 42.8939ZM47.8479 39.5985C48.2456 39.5985 48.6181 39.5164 48.9653 39.3523C49.3189 39.1881 49.6061 38.9514 49.8271 38.6421C50.048 38.3327 50.1585 37.9571 50.1585 37.5152V36.303C50.0196 36.3599 49.8713 36.4135 49.7134 36.464C49.5619 36.5145 49.3978 36.5619 49.221 36.6061C49.0506 36.6503 48.8675 36.6913 48.6718 36.7292C48.4824 36.7671 48.2835 36.8018 48.0752 36.8333C47.6711 36.8965 47.3397 37.0006 47.0809 37.1458C46.8283 37.2847 46.6389 37.4583 46.5127 37.6667C46.3927 37.8687 46.3327 38.096 46.3327 38.3485C46.3327 38.7525 46.4748 39.0619 46.7589 39.2765C47.043 39.4912 47.406 39.5985 47.8479 39.5985Z" fill="white"/>
<path d="M57.8455 42.6667V28.1212H62.9213V30.8864H63.0728C63.338 29.8636 63.7578 29.1155 64.3323 28.6421C64.9131 28.1686 65.5917 27.9318 66.3683 27.9318C66.5955 27.9318 66.8196 27.9508 67.0406 27.9886C67.2679 28.0202 67.4857 28.0676 67.694 28.1307V32.5909C67.4352 32.5025 67.1164 32.4362 66.7376 32.3921C66.3588 32.3479 66.0337 32.3258 65.7622 32.3258C65.2508 32.3258 64.79 32.4426 64.3796 32.6761C63.9756 32.9034 63.6568 33.2254 63.4232 33.6421C63.1896 34.0524 63.0728 34.5354 63.0728 35.0909V42.6667H57.8455Z" fill="white"/>
<path d="M0 21.5385V0H5.48127L13.3924 14.0615H10.5105L18.1956 0H23.6768L23.7333 21.5385H17.6587L17.6022 9.96923H18.5629L13.3076 19.6H10.3692L4.88794 9.96923H6.0746V21.5385H0Z" fill="white"/>
<path d="M23.7333 22.4615V44H18.2521L10.341 29.9385H13.2229L5.53778 44H0.0565072L0 22.4615H6.0746L6.13111 34.0308H5.17048L10.4257 24.4H13.3641L18.8454 34.0308H17.6587V22.4615H23.7333Z" fill="#FF5C00"/>
</svg>
